<svg xmlns="http://www.w3.org/2000/svg" viewBox="0 0 48 60" x="0px" y="0px"><g data-name="Design, Square Four"><path d="M38,25H26a1,1,0,0,0-1,1V38a1,1,0,0,0,1,1H38a1,1,0,0,0,1-1V26A1,1,0,0,0,38,25ZM37,37H27V27H37ZM22,25H10a1,1,0,0,0-1,1V38a1,1,0,0,0,1,1H22a1,1,0,0,0,1-1V26A1,1,0,0,0,22,25ZM21,37H11V27H21ZM22,9H10a1,1,0,0,0-1,1V22a1,1,0,0,0,1,1H22a1,1,0,0,0,1-1V10A1,1,0,0,0,22,9ZM21,21H11V11H21ZM38,9H26a1,1,0,0,0-1,1V22a1,1,0,0,0,1,1H38a1,1,0,0,0,1-1V10A1,1,0,0,0,38,9ZM37,21H27V11H37Z"/></g><text x="0" y="63" fill="#000000" font-size="5px" font-weight="bold" font-family="'Helvetica Neue', Helvetica, Arial-Unicode, Arial, Sans-serif">Created by Rahman Haryanto</text><text x="0" y="68" fill="#000000" font-size="5px" font-weight="bold" font-family="'Helvetica Neue', Helvetica, Arial-Unicode, Arial, Sans-serif">from the Noun Project</text></svg>