<svg xmlns="http://www.w3.org/2000/svg" data-name="Layer 1" viewBox="0 0 512 640" x="0px" y="0px"><title>Artboard 85</title><path d="M256,9.706c-58.492,0-106,46.127-106,102.825V426.638c0,41.716,35.026,75.656,78,75.656s78-33.94,78-75.656V147.716c0-26.726-22.535-48.468-50.02-48.468-27.445,0-49.98,21.742-49.98,48.468V440h24V147.716c0-13.491,11.768-24.468,26.02-24.468,14.212,0,25.98,10.977,25.98,24.468V426.638c0,28.483-24.26,51.656-54,51.656s-54-23.173-54-51.656V112.531c0-43.464,36.742-78.825,82-78.825s82,35.361,82,78.825V239h24V112.531C362,55.833,314.492,9.706,256,9.706Z"/><text x="0" y="527" fill="#000000" font-size="5px" font-weight="bold" font-family="'Helvetica Neue', Helvetica, Arial-Unicode, Arial, Sans-serif">Created by Satisfactory</text><text x="0" y="532" fill="#000000" font-size="5px" font-weight="bold" font-family="'Helvetica Neue', Helvetica, Arial-Unicode, Arial, Sans-serif">from the Noun Project</text></svg>